<svg xmlns="http://www.w3.org/2000/svg" viewBox="0 0 48 48">
  <defs>
    <linearGradient id="g" x1="0" y1="0" x2="1" y2="1">
      <stop offset="0" stop-color="#FF9636"/>
      <stop offset="1" stop-color="#D9461A"/>
    </linearGradient>
  </defs>
  <rect width="48" height="48" rx="12" fill="url(#g)"/>
  <rect x="0.5" y="0.5" width="47" height="47" rx="11.5" fill="none" stroke="#fff" stroke-opacity="0.18"/>
  <g transform="translate(12 12)" fill="none" stroke="#fff" stroke-width="2" stroke-linecap="round" stroke-linejoin="round"><path d="M12 20h-1a2 2 0 0 1-2-2 2 2 0 0 1-2 2H6"/><path d="M13 8h7a2 2 0 0 1 2 2v4a2 2 0 0 1-2 2h-7"/><path d="M5 16H4a2 2 0 0 1-2-2v-4a2 2 0 0 1 2-2h1"/><path d="M6 4h1a2 2 0 0 1 2 2 2 2 0 0 1 2-2h1"/><path d="M9 6v12"/></g>
</svg>
